<svg t="1746669232928" class="icon" viewBox="0 0 1024 1024" version="1.1" xmlns="http://www.w3.org/2000/svg" p-id="11289" width="200" height="200"><path d="M104.684308 854.173538L532.873846 256H215.433846C141.548308 251.037538 102.163692 211.652923 97.28 137.846154 102.242462 63.960615 141.548308 24.576 215.433846 19.692308h620.307692c59.076923 4.962462 88.615385 31.980308 88.615385 81.211077 0 29.538462-9.846154 56.635077-29.538461 81.289846L466.471385 787.692308h361.865846c73.885538 4.962462 113.270154 44.347077 118.153846 118.153846-4.883692 73.885538-44.268308 113.270154-118.153846 118.153846H193.378462C119.335385 1019.037538 82.471385 987.057231 82.471385 927.980308c0-14.729846 4.962462-31.980308 14.808615-51.672616a56.713846 56.713846 0 0 0 7.404308-22.134154z" fill="#222222" p-id="11290"></path></svg>
